<svg width="178" height="33" viewBox="0 0 178 33" fill="none" xmlns="http://www.w3.org/2000/svg">
<path d="M16.32 3.06V6.45H10.74V24H6.54V6.45H0.96V3.06H16.32ZM34.5345 15.33C34.5345 15.93 34.4945 16.47 34.4145 16.95H22.2645C22.3645 18.15 22.7845 19.09 23.5245 19.77C24.2645 20.45 25.1745 20.79 26.2545 20.79C27.8145 20.79 28.9245 20.12 29.5845 18.78H34.1145C33.6345 20.38 32.7145 21.7 31.3545 22.74C29.9945 23.76 28.3245 24.27 26.3445 24.27C24.7445 24.27 23.3045 23.92 22.0245 23.22C20.7645 22.5 19.7745 21.49 19.0545 20.19C18.3545 18.89 18.0045 17.39 18.0045 15.69C18.0045 13.97 18.3545 12.46 19.0545 11.16C19.7545 9.86 20.7345 8.86 21.9945 8.16C23.2545 7.46 24.7045 7.11 26.3445 7.11C27.9245 7.11 29.3345 7.45 30.5745 8.13C31.8345 8.81 32.8045 9.78 33.4845 11.04C34.1845 12.28 34.5345 13.71 34.5345 15.33ZM30.1845 14.13C30.1645 13.05 29.7745 12.19 29.0145 11.55C28.2545 10.89 27.3245 10.56 26.2245 10.56C25.1845 10.56 24.3045 10.88 23.5845 11.52C22.8845 12.14 22.4545 13.01 22.2945 14.13H30.1845ZM36.2201 15.69C36.2201 13.97 36.5701 12.47 37.2701 11.19C37.9701 9.89 38.9401 8.89 40.1801 8.19C41.4201 7.47 42.8401 7.11 44.4401 7.11C46.5001 7.11 48.2001 7.63 49.5401 8.67C50.9001 9.69 51.8101 11.13 52.2701 12.99H47.7401C47.5001 12.27 47.0901 11.71 46.5101 11.31C45.9501 10.89 45.2501 10.68 44.4101 10.68C43.2101 10.68 42.2601 11.12 41.5601 12C40.8601 12.86 40.5101 14.09 40.5101 15.69C40.5101 17.27 40.8601 18.5 41.5601 19.38C42.2601 20.24 43.2101 20.67 44.4101 20.67C46.1101 20.67 47.2201 19.91 47.7401 18.39H52.2701C51.8101 20.19 50.9001 21.62 49.5401 22.68C48.1801 23.74 46.4801 24.27 44.4401 24.27C42.8401 24.27 41.4201 23.92 40.1801 23.22C38.9401 22.5 37.9701 21.5 37.2701 20.22C36.5701 18.92 36.2201 17.41 36.2201 15.69ZM64.407 7.14C65.667 7.14 66.787 7.42 67.767 7.98C68.747 8.52 69.507 9.33 70.047 10.41C70.607 11.47 70.887 12.75 70.887 14.25V24H66.687V14.82C66.687 13.5 66.357 12.49 65.697 11.79C65.037 11.07 64.137 10.71 62.997 10.71C61.837 10.71 60.917 11.07 60.237 11.79C59.577 12.49 59.247 13.5 59.247 14.82V24H55.047V1.8H59.247V9.45C59.787 8.73 60.507 8.17 61.407 7.77C62.307 7.35 63.307 7.14 64.407 7.14ZM106.657 9.96C107.197 9.08 107.897 8.39 108.757 7.89C109.637 7.39 110.637 7.14 111.757 7.14V11.55H110.647C109.327 11.55 108.327 11.86 107.647 12.48C106.987 13.1 106.657 14.18 106.657 15.72V24H102.457V7.38H106.657V9.96ZM116.416 5.4C115.676 5.4 115.056 5.17 114.556 4.71C114.076 4.23 113.836 3.64 113.836 2.94C113.836 2.24 114.076 1.66 114.556 1.2C115.056 0.719999 115.676 0.479999 116.416 0.479999C117.156 0.479999 117.766 0.719999 118.246 1.2C118.746 1.66 118.996 2.24 118.996 2.94C118.996 3.64 118.746 4.23 118.246 4.71C117.766 5.17 117.156 5.4 116.416 5.4ZM118.486 7.38V24H114.286V7.38H118.486ZM121.256 15.63C121.256 13.95 121.586 12.46 122.246 11.16C122.926 9.86 123.846 8.86 125.006 8.16C126.166 7.46 127.456 7.11 128.876 7.11C129.956 7.11 130.986 7.35 131.966 7.83C132.946 8.29 133.726 8.91 134.306 9.69V1.8H138.566V24H134.306V21.54C133.786 22.36 133.056 23.02 132.116 23.52C131.176 24.02 130.086 24.27 128.846 24.27C127.446 24.27 126.166 23.91 125.006 23.19C123.846 22.47 122.926 21.46 122.246 20.16C121.586 18.84 121.256 17.33 121.256 15.63ZM134.336 15.69C134.336 14.67 134.136 13.8 133.736 13.08C133.336 12.34 132.796 11.78 132.116 11.4C131.436 11 130.706 10.8 129.926 10.8C129.146 10.8 128.426 10.99 127.766 11.37C127.106 11.75 126.566 12.31 126.146 13.05C125.746 13.77 125.546 14.63 125.546 15.63C125.546 16.63 125.746 17.51 126.146 18.27C126.566 19.01 127.106 19.58 127.766 19.98C128.446 20.38 129.166 20.58 129.926 20.58C130.706 20.58 131.436 20.39 132.116 20.01C132.796 19.61 133.336 19.05 133.736 18.33C134.136 17.59 134.336 16.71 134.336 15.69ZM148.878 7.11C150.118 7.11 151.208 7.36 152.148 7.86C153.088 8.34 153.828 8.97 154.368 9.75V7.38H158.598V24.12C158.598 25.66 158.288 27.03 157.668 28.23C157.048 29.45 156.118 30.41 154.878 31.11C153.638 31.83 152.138 32.19 150.378 32.19C148.018 32.19 146.078 31.64 144.558 30.54C143.058 29.44 142.208 27.94 142.008 26.04H146.178C146.398 26.8 146.868 27.4 147.588 27.84C148.328 28.3 149.218 28.53 150.258 28.53C151.478 28.53 152.468 28.16 153.228 27.42C153.988 26.7 154.368 25.6 154.368 24.12V21.54C153.828 22.32 153.078 22.97 152.118 23.49C151.178 24.01 150.098 24.27 148.878 24.27C147.478 24.27 146.198 23.91 145.038 23.19C143.878 22.47 142.958 21.46 142.278 20.16C141.618 18.84 141.288 17.33 141.288 15.63C141.288 13.95 141.618 12.46 142.278 11.16C142.958 9.86 143.868 8.86 145.008 8.16C146.168 7.46 147.458 7.11 148.878 7.11ZM154.368 15.69C154.368 14.67 154.168 13.8 153.768 13.08C153.368 12.34 152.828 11.78 152.148 11.4C151.468 11 150.738 10.8 149.958 10.8C149.178 10.8 148.458 10.99 147.798 11.37C147.138 11.75 146.598 12.31 146.178 13.05C145.778 13.77 145.578 14.63 145.578 15.63C145.578 16.63 145.778 17.51 146.178 18.27C146.598 19.01 147.138 19.58 147.798 19.98C148.478 20.38 149.198 20.58 149.958 20.58C150.738 20.58 151.468 20.39 152.148 20.01C152.828 19.61 153.368 19.05 153.768 18.33C154.168 17.59 154.368 16.71 154.368 15.69ZM177.85 15.33C177.85 15.93 177.81 16.47 177.73 16.95H165.58C165.68 18.15 166.1 19.09 166.84 19.77C167.58 20.45 168.49 20.79 169.57 20.79C171.13 20.79 172.24 20.12 172.9 18.78H177.43C176.95 20.38 176.03 21.7 174.67 22.74C173.31 23.76 171.64 24.27 169.66 24.27C168.06 24.27 166.62 23.92 165.34 23.22C164.08 22.5 163.09 21.49 162.37 20.19C161.67 18.89 161.32 17.39 161.32 15.69C161.32 13.97 161.67 12.46 162.37 11.16C163.07 9.86 164.05 8.86 165.31 8.16C166.57 7.46 168.02 7.11 169.66 7.11C171.24 7.11 172.65 7.45 173.89 8.13C175.15 8.81 176.12 9.78 176.8 11.04C177.5 12.28 177.85 13.71 177.85 15.33ZM173.5 14.13C173.48 13.05 173.09 12.19 172.33 11.55C171.57 10.89 170.64 10.56 169.54 10.56C168.5 10.56 167.62 10.88 166.9 11.52C166.2 12.14 165.77 13.01 165.61 14.13H173.5Z" fill="#212B36"/>
<path d="M100.239 3.06L92.5594 24H87.4594L79.7794 3.06H84.2794L90.0394 19.71L95.7694 3.06H100.239Z" fill="#0AAFFC"/>
</svg>
